<svg xmlns="http://www.w3.org/2000/svg" viewBox="0 0 1920 1080" width="1920" height="1080">
  <!-- Background Sky with Gradient -->
  <defs>
    <linearGradient id="skyGradient" x1="0%" y1="0%" x2="0%" y2="100%">
      <stop offset="0%" style="stop-color:#1a4a8f;stop-opacity:1" />
      <stop offset="40%" style="stop-color:#4682B4;stop-opacity:1" />
      <stop offset="100%" style="stop-color:#87CEEB;stop-opacity:1" />
    </linearGradient>
  </defs>
  <rect width="1920" height="1080" fill="url(#skyGradient)" />
  
  <!-- Mountains in background with Gradient -->
  <defs>
    <linearGradient id="mountainGradient" x1="0%" y1="0%" x2="0%" y2="100%">
      <stop offset="0%" style="stop-color:#8B4513;stop-opacity:1" />
      <stop offset="100%" style="stop-color:#A0522D;stop-opacity:1" />
    </linearGradient>
  </defs>
  <polygon points="0,500 200,350 400,450 600,300 800,400 1000,250 1200,500 1400,350 1600,450 1800,300 1920,400 1920,1080 0,1080" fill="url(#mountainGradient)" />
  
  <!-- Desert/Ground with Gradient -->
  <defs>
    <linearGradient id="desertGradient" x1="0%" y1="0%" x2="0%" y2="100%">
      <stop offset="0%" style="stop-color:#DAA520;stop-opacity:1" />
      <stop offset="100%" style="stop-color:#F4A460;stop-opacity:1" />
    </linearGradient>
  </defs>
  <rect x="0" y="700" width="1920" height="380" fill="url(#desertGradient)" />
  
  <!-- Oasis -->
  <ellipse cx="960" cy="800" rx="800" ry="150" fill="#228B22" opacity="0.7" />
  
  <!-- Kasbah in the distance -->
  <g transform="translate(1400, 600) scale(0.8)">
    <!-- Main Structure -->
    <rect x="0" y="0" width="300" height="200" fill="#CD853F" />
    
    <!-- Towers -->
    <rect x="0" y="-50" width="60" height="50" fill="#CD853F" />
    <rect x="240" y="-50" width="60" height="50" fill="#CD853F" />
    
    <!-- Tower Tops -->
    <polygon points="0,-50 60,-50 50,-80 10,-80" fill="#A0522D" />
    <polygon points="240,-50 300,-50 290,-80 250,-80" fill="#A0522D" />
    
    <!-- Windows and Decorations -->
    <rect x="50" y="50" width="30" height="30" fill="#000" />
    <rect x="130" y="50" width="30" height="30" fill="#000" />
    <rect x="210" y="50" width="30" height="30" fill="#000" />
    <rect x="120" y="120" width="60" height="80" fill="#8B4513" />
  </g>
  
  <!-- Palm Trees -->
  <!-- Large Palm Trees -->
  <g transform="translate(300, 750)">
    <rect x="-10" y="0" width="20" height="80" fill="#8B4513" />
    <path d="M0,0 C-40,-20 -60,-60 -20,-80 M0,0 C40,-20 60,-60 20,-80 M0,0 C-30,-30 -20,-80 0,-100 M0,0 C30,-30 20,-80 0,-100" stroke="#006400" stroke-width="10" fill="none" />
  </g>
  
  <g transform="translate(500, 730)">
    <rect x="-10" y="0" width="20" height="80" fill="#8B4513" />
    <path d="M0,0 C-40,-20 -60,-60 -20,-80 M0,0 C40,-20 60,-60 20,-80 M0,0 C-30,-30 -20,-80 0,-100 M0,0 C30,-30 20,-80 0,-100" stroke="#006400" stroke-width="10" fill="none" />
  </g>
  
  <g transform="translate(1400, 740)">
    <rect x="-10" y="0" width="20" height="80" fill="#8B4513" />
    <path d="M0,0 C-40,-20 -60,-60 -20,-80 M0,0 C40,-20 60,-60 20,-80 M0,0 C-30,-30 -20,-80 0,-100 M0,0 C30,-30 20,-80 0,-100" stroke="#006400" stroke-width="10" fill="none" />
  </g>
  
  <g transform="translate(1600, 760)">
    <rect x="-10" y="0" width="20" height="80" fill="#8B4513" />
    <path d="M0,0 C-40,-20 -60,-60 -20,-80 M0,0 C40,-20 60,-60 20,-80 M0,0 C-30,-30 -20,-80 0,-100 M0,0 C30,-30 20,-80 0,-100" stroke="#006400" stroke-width="10" fill="none" />
  </g>
  
  <!-- Medium Palm Trees -->
  <g transform="translate(200, 780)">
    <rect x="-7" y="0" width="14" height="60" fill="#8B4513" />
    <path d="M0,0 C-30,-15 -40,-45 -15,-60 M0,0 C30,-15 40,-45 15,-60 M0,0 C-20,-25 -15,-60 0,-75 M0,0 C20,-25 15,-60 0,-75" stroke="#006400" stroke-width="7" fill="none" />
  </g>
  
  <g transform="translate(700, 770)">
    <rect x="-7" y="0" width="14" height="60" fill="#8B4513" />
    <path d="M0,0 C-30,-15 -40,-45 -15,-60 M0,0 C30,-15 40,-45 15,-60 M0,0 C-20,-25 -15,-60 0,-75 M0,0 C20,-25 15,-60 0,-75" stroke="#006400" stroke-width="7" fill="none" />
  </g>
  
  <g transform="translate(1200, 775)">
    <rect x="-7" y="0" width="14" height="60" fill="#8B4513" />
    <path d="M0,0 C-30,-15 -40,-45 -15,-60 M0,0 C30,-15 40,-45 15,-60 M0,0 C-20,-25 -15,-60 0,-75 M0,0 C20,-25 15,-60 0,-75" stroke="#006400" stroke-width="7" fill="none" />
  </g>
  
  <g transform="translate(1700, 785)">
    <rect x="-7" y="0" width="14" height="60" fill="#8B4513" />
    <path d="M0,0 C-30,-15 -40,-45 -15,-60 M0,0 C30,-15 40,-45 15,-60 M0,0 C-20,-25 -15,-60 0,-75 M0,0 C20,-25 15,-60 0,-75" stroke="#006400" stroke-width="7" fill="none" />
  </g>
  
  <!-- Small Palm Trees -->
  <g transform="translate(100, 800)">
    <rect x="-5" y="0" width="10" height="40" fill="#8B4513" />
    <path d="M0,0 C-20,-10 -30,-30 -10,-40 M0,0 C20,-10 30,-30 10,-40 M0,0 C-15,-15 -10,-40 0,-50 M0,0 C15,-15 10,-40 0,-50" stroke="#006400" stroke-width="5" fill="none" />
  </g>
  
  <g transform="translate(400, 790)">
    <rect x="-5" y="0" width="10" height="40" fill="#8B4513" />
    <path d="M0,0 C-20,-10 -30,-30 -10,-40 M0,0 C20,-10 30,-30 10,-40 M0,0 C-15,-15 -10,-40 0,-50 M0,0 C15,-15 10,-40 0,-50" stroke="#006400" stroke-width="5" fill="none" />
  </g>
  
  <g transform="translate(900, 795)">
    <rect x="-5" y="0" width="10" height="40" fill="#8B4513" />
    <path d="M0,0 C-20,-10 -30,-30 -10,-40 M0,0 C20,-10 30,-30 10,-40 M0,0 C-15,-15 -10,-40 0,-50 M0,0 C15,-15 10,-40 0,-50" stroke="#006400" stroke-width="5" fill="none" />
  </g>
  
  <g transform="translate(1100, 800)">
    <rect x="-5" y="0" width="10" height="40" fill="#8B4513" />
    <path d="M0,0 C-20,-10 -30,-30 -10,-40 M0,0 C20,-10 30,-30 10,-40 M0,0 C-15,-15 -10,-40 0,-50 M0,0 C15,-15 10,-40 0,-50" stroke="#006400" stroke-width="5" fill="none" />
  </g>
  
  <g transform="translate(1500, 790)">
    <rect x="-5" y="0" width="10" height="40" fill="#8B4513" />
    <path d="M0,0 C-20,-10 -30,-30 -10,-40 M0,0 C20,-10 30,-30 10,-40 M0,0 C-15,-15 -10,-40 0,-50 M0,0 C15,-15 10,-40 0,-50" stroke="#006400" stroke-width="5" fill="none" />
  </g>
  
  <g transform="translate(1800, 800)">
    <rect x="-5" y="0" width="10" height="40" fill="#8B4513" />
    <path d="M0,0 C-20,-10 -30,-30 -10,-40 M0,0 C20,-10 30,-30 10,-40 M0,0 C-15,-15 -10,-40 0,-50 M0,0 C15,-15 10,-40 0,-50" stroke="#006400" stroke-width="5" fill="none" />
  </g>
  
  <!-- Sun with Glow -->
  <defs>
    <radialGradient id="sunGlow" cx="50%" cy="50%" r="50%" fx="50%" fy="50%">
      <stop offset="0%" style="stop-color:#FFD700;stop-opacity:1" />
      <stop offset="100%" style="stop-color:#FF8C00;stop-opacity:0" />
    </radialGradient>
  </defs>
  <circle cx="1600" cy="200" r="100" fill="url(#sunGlow)" />
  <circle cx="1600" cy="200" r="60" fill="#FFD700" />
  <g transform="translate(1600, 200)">
    <path d="M0,-80 L0,-100 M80,0 L100,0 M0,80 L0,100 M-80,0 L-100,0 M56,-56 L70,-70 M56,56 L70,70 M-56,56 L-70,70 M-56,-56 L-70,-70" stroke="#FFD700" stroke-width="8" />
  </g>
</svg>